<mxfile host="app.diagrams.net" modified="2024-04-02T01:09:06.054Z" agent="Mozilla/5.0 (Windows NT 10.0; Win64; x64) AppleWebKit/537.36 (KHTML, like Gecko) Chrome/123.0.0.0 Safari/537.36" etag="bJJds7Xj5iZsaqMLrLVA" version="24.2.1" type="device">
  <diagram name="페이지-1" id="6jw7lOe7E8gcQmHh3pxr">
    <mxGraphModel dx="3341" dy="918" grid="1" gridSize="10" guides="1" tooltips="1" connect="1" arrows="1" fold="1" page="1" pageScale="1" pageWidth="827" pageHeight="1169" math="0" shadow="0">
      <root>
        <mxCell id="0" />
        <mxCell id="1" parent="0" />
        <mxCell id="edOpRAjZDSZFCRQSgUi0-1" value="traffic&lt;div&gt;교통편&lt;/div&gt;" style="rounded=0;whiteSpace=wrap;html=1;" parent="1" vertex="1">
          <mxGeometry x="-700" y="50" width="120" height="60" as="geometry" />
        </mxCell>
        <mxCell id="edOpRAjZDSZFCRQSgUi0-2" value="ttype&lt;div&gt;(종류)&lt;/div&gt;" style="ellipse;whiteSpace=wrap;html=1;" parent="1" vertex="1">
          <mxGeometry x="-860" y="160" width="120" height="80" as="geometry" />
        </mxCell>
        <mxCell id="edOpRAjZDSZFCRQSgUi0-3" value="no&lt;div&gt;(번호)&lt;/div&gt;" style="ellipse;whiteSpace=wrap;html=1;" parent="1" vertex="1">
          <mxGeometry x="-700" y="160" width="120" height="80" as="geometry" />
        </mxCell>
        <mxCell id="edOpRAjZDSZFCRQSgUi0-4" value="route&lt;div&gt;(노선)&lt;/div&gt;" style="ellipse;whiteSpace=wrap;html=1;" parent="1" vertex="1">
          <mxGeometry x="-540" y="160" width="120" height="80" as="geometry" />
        </mxCell>
        <mxCell id="edOpRAjZDSZFCRQSgUi0-5" value="coment&lt;div&gt;(설명)&lt;/div&gt;" style="ellipse;whiteSpace=wrap;html=1;" parent="1" vertex="1">
          <mxGeometry x="-380" y="160" width="120" height="80" as="geometry" />
        </mxCell>
        <mxCell id="edOpRAjZDSZFCRQSgUi0-6" value="" style="endArrow=classic;html=1;rounded=0;exitX=0.5;exitY=1;exitDx=0;exitDy=0;entryX=0.5;entryY=0;entryDx=0;entryDy=0;" parent="1" source="edOpRAjZDSZFCRQSgUi0-1" target="edOpRAjZDSZFCRQSgUi0-5" edge="1">
          <mxGeometry width="50" height="50" relative="1" as="geometry">
            <mxPoint x="-670" y="440" as="sourcePoint" />
            <mxPoint x="-620" y="390" as="targetPoint" />
          </mxGeometry>
        </mxCell>
        <mxCell id="edOpRAjZDSZFCRQSgUi0-7" value="" style="endArrow=classic;html=1;rounded=0;exitX=0.5;exitY=1;exitDx=0;exitDy=0;entryX=0.5;entryY=0;entryDx=0;entryDy=0;" parent="1" source="edOpRAjZDSZFCRQSgUi0-1" target="edOpRAjZDSZFCRQSgUi0-4" edge="1">
          <mxGeometry width="50" height="50" relative="1" as="geometry">
            <mxPoint x="-670" y="440" as="sourcePoint" />
            <mxPoint x="-620" y="390" as="targetPoint" />
          </mxGeometry>
        </mxCell>
        <mxCell id="edOpRAjZDSZFCRQSgUi0-8" value="" style="endArrow=classic;html=1;rounded=0;exitX=0.5;exitY=1;exitDx=0;exitDy=0;entryX=0.5;entryY=0;entryDx=0;entryDy=0;" parent="1" source="edOpRAjZDSZFCRQSgUi0-1" target="edOpRAjZDSZFCRQSgUi0-3" edge="1">
          <mxGeometry width="50" height="50" relative="1" as="geometry">
            <mxPoint x="-670" y="440" as="sourcePoint" />
            <mxPoint x="-620" y="390" as="targetPoint" />
          </mxGeometry>
        </mxCell>
        <mxCell id="edOpRAjZDSZFCRQSgUi0-9" value="" style="endArrow=classic;html=1;rounded=0;exitX=0.5;exitY=1;exitDx=0;exitDy=0;entryX=0.5;entryY=0;entryDx=0;entryDy=0;" parent="1" source="edOpRAjZDSZFCRQSgUi0-1" target="edOpRAjZDSZFCRQSgUi0-2" edge="1">
          <mxGeometry width="50" height="50" relative="1" as="geometry">
            <mxPoint x="-670" y="440" as="sourcePoint" />
            <mxPoint x="-620" y="390" as="targetPoint" />
          </mxGeometry>
        </mxCell>
        <mxCell id="edOpRAjZDSZFCRQSgUi0-10" value="&lt;div&gt;guide&lt;/div&gt;안내사항" style="rounded=0;whiteSpace=wrap;html=1;" parent="1" vertex="1">
          <mxGeometry x="354" y="50" width="120" height="60" as="geometry" />
        </mxCell>
        <mxCell id="edOpRAjZDSZFCRQSgUi0-11" value="&lt;font color=&quot;#ff443d&quot;&gt;pcode&lt;/font&gt;&lt;div&gt;&lt;font color=&quot;#ff443d&quot;&gt;(장소코드)&lt;/font&gt;&lt;/div&gt;" style="ellipse;whiteSpace=wrap;html=1;" parent="1" vertex="1">
          <mxGeometry x="-125" y="160" width="120" height="80" as="geometry" />
        </mxCell>
        <mxCell id="edOpRAjZDSZFCRQSgUi0-12" value="pname&lt;div&gt;(장소이름)&lt;/div&gt;" style="ellipse;whiteSpace=wrap;html=1;" parent="1" vertex="1">
          <mxGeometry x="35" y="160" width="120" height="80" as="geometry" />
        </mxCell>
        <mxCell id="edOpRAjZDSZFCRQSgUi0-13" value="ptype&lt;div&gt;(장소종류)&lt;/div&gt;" style="ellipse;whiteSpace=wrap;html=1;" parent="1" vertex="1">
          <mxGeometry x="195" y="160" width="120" height="80" as="geometry" />
        </mxCell>
        <mxCell id="edOpRAjZDSZFCRQSgUi0-14" value="paddr&lt;div&gt;(장소주소)&lt;/div&gt;" style="ellipse;whiteSpace=wrap;html=1;" parent="1" vertex="1">
          <mxGeometry x="355" y="160" width="120" height="80" as="geometry" />
        </mxCell>
        <mxCell id="edOpRAjZDSZFCRQSgUi0-15" value="ptel&lt;div&gt;(장소연락처)&lt;/div&gt;" style="ellipse;whiteSpace=wrap;html=1;" parent="1" vertex="1">
          <mxGeometry x="515" y="160" width="120" height="80" as="geometry" />
        </mxCell>
        <mxCell id="edOpRAjZDSZFCRQSgUi0-16" value="pgps&lt;div&gt;(장소gps값)&lt;/div&gt;" style="ellipse;whiteSpace=wrap;html=1;" parent="1" vertex="1">
          <mxGeometry x="675" y="160" width="120" height="80" as="geometry" />
        </mxCell>
        <mxCell id="edOpRAjZDSZFCRQSgUi0-17" value="pcomment&lt;div&gt;(장소설명)&lt;/div&gt;" style="ellipse;whiteSpace=wrap;html=1;" parent="1" vertex="1">
          <mxGeometry x="831" y="160" width="120" height="80" as="geometry" />
        </mxCell>
        <mxCell id="edOpRAjZDSZFCRQSgUi0-19" value="" style="endArrow=classic;html=1;rounded=0;exitX=0.5;exitY=1;exitDx=0;exitDy=0;entryX=0.5;entryY=0;entryDx=0;entryDy=0;" parent="1" source="edOpRAjZDSZFCRQSgUi0-10" target="edOpRAjZDSZFCRQSgUi0-15" edge="1">
          <mxGeometry width="50" height="50" relative="1" as="geometry">
            <mxPoint x="470" y="320" as="sourcePoint" />
            <mxPoint x="520" y="270" as="targetPoint" />
          </mxGeometry>
        </mxCell>
        <mxCell id="edOpRAjZDSZFCRQSgUi0-20" value="" style="endArrow=classic;html=1;rounded=0;exitX=0.5;exitY=1;exitDx=0;exitDy=0;entryX=0.5;entryY=0;entryDx=0;entryDy=0;" parent="1" source="edOpRAjZDSZFCRQSgUi0-10" target="edOpRAjZDSZFCRQSgUi0-14" edge="1">
          <mxGeometry width="50" height="50" relative="1" as="geometry">
            <mxPoint x="470" y="320" as="sourcePoint" />
            <mxPoint x="520" y="270" as="targetPoint" />
          </mxGeometry>
        </mxCell>
        <mxCell id="edOpRAjZDSZFCRQSgUi0-21" value="" style="endArrow=classic;html=1;rounded=0;entryX=0.5;entryY=0;entryDx=0;entryDy=0;" parent="1" target="edOpRAjZDSZFCRQSgUi0-16" edge="1">
          <mxGeometry width="50" height="50" relative="1" as="geometry">
            <mxPoint x="420" y="110" as="sourcePoint" />
            <mxPoint x="520" y="270" as="targetPoint" />
          </mxGeometry>
        </mxCell>
        <mxCell id="edOpRAjZDSZFCRQSgUi0-22" value="" style="endArrow=classic;html=1;rounded=0;exitX=0.5;exitY=1;exitDx=0;exitDy=0;entryX=0.5;entryY=0;entryDx=0;entryDy=0;" parent="1" source="edOpRAjZDSZFCRQSgUi0-10" target="edOpRAjZDSZFCRQSgUi0-17" edge="1">
          <mxGeometry width="50" height="50" relative="1" as="geometry">
            <mxPoint x="470" y="320" as="sourcePoint" />
            <mxPoint x="520" y="270" as="targetPoint" />
          </mxGeometry>
        </mxCell>
        <mxCell id="edOpRAjZDSZFCRQSgUi0-24" value="" style="endArrow=classic;html=1;rounded=0;exitX=0.5;exitY=1;exitDx=0;exitDy=0;entryX=0.5;entryY=0;entryDx=0;entryDy=0;" parent="1" source="edOpRAjZDSZFCRQSgUi0-10" target="edOpRAjZDSZFCRQSgUi0-13" edge="1">
          <mxGeometry width="50" height="50" relative="1" as="geometry">
            <mxPoint x="470" y="320" as="sourcePoint" />
            <mxPoint x="520" y="270" as="targetPoint" />
          </mxGeometry>
        </mxCell>
        <mxCell id="edOpRAjZDSZFCRQSgUi0-25" value="" style="endArrow=classic;html=1;rounded=0;exitX=0.5;exitY=1;exitDx=0;exitDy=0;entryX=0.5;entryY=0;entryDx=0;entryDy=0;" parent="1" source="edOpRAjZDSZFCRQSgUi0-10" target="edOpRAjZDSZFCRQSgUi0-12" edge="1">
          <mxGeometry width="50" height="50" relative="1" as="geometry">
            <mxPoint x="470" y="320" as="sourcePoint" />
            <mxPoint x="520" y="270" as="targetPoint" />
          </mxGeometry>
        </mxCell>
        <mxCell id="edOpRAjZDSZFCRQSgUi0-26" value="" style="endArrow=classic;html=1;rounded=0;exitX=0.5;exitY=1;exitDx=0;exitDy=0;entryX=0.5;entryY=0;entryDx=0;entryDy=0;" parent="1" source="edOpRAjZDSZFCRQSgUi0-10" target="edOpRAjZDSZFCRQSgUi0-11" edge="1">
          <mxGeometry width="50" height="50" relative="1" as="geometry">
            <mxPoint x="414" y="120" as="sourcePoint" />
            <mxPoint x="520" y="280" as="targetPoint" />
          </mxGeometry>
        </mxCell>
        <mxCell id="edOpRAjZDSZFCRQSgUi0-27" value="notice&lt;div&gt;사이트 소개&lt;/div&gt;" style="rounded=0;whiteSpace=wrap;html=1;" parent="1" vertex="1">
          <mxGeometry x="-700" y="390" width="120" height="60" as="geometry" />
        </mxCell>
        <mxCell id="edOpRAjZDSZFCRQSgUi0-28" value="&lt;div&gt;&lt;font color=&quot;#ff443d&quot;&gt;no&lt;/font&gt;&lt;/div&gt;&lt;font color=&quot;#ff443d&quot;&gt;글번호&lt;/font&gt;" style="ellipse;whiteSpace=wrap;html=1;" parent="1" vertex="1">
          <mxGeometry x="-1020" y="505" width="120" height="80" as="geometry" />
        </mxCell>
        <mxCell id="edOpRAjZDSZFCRQSgUi0-29" value="&lt;div&gt;title&lt;/div&gt;글제목" style="ellipse;whiteSpace=wrap;html=1;" parent="1" vertex="1">
          <mxGeometry x="-860" y="505" width="120" height="80" as="geometry" />
        </mxCell>
        <mxCell id="edOpRAjZDSZFCRQSgUi0-30" value="&lt;div&gt;content&lt;/div&gt;글내용" style="ellipse;whiteSpace=wrap;html=1;" parent="1" vertex="1">
          <mxGeometry x="-700" y="505" width="120" height="80" as="geometry" />
        </mxCell>
        <mxCell id="edOpRAjZDSZFCRQSgUi0-31" value="&lt;div&gt;resdate&lt;/div&gt;&lt;div&gt;작성일시&lt;/div&gt;" style="ellipse;whiteSpace=wrap;html=1;" parent="1" vertex="1">
          <mxGeometry x="-540" y="505" width="120" height="80" as="geometry" />
        </mxCell>
        <mxCell id="edOpRAjZDSZFCRQSgUi0-32" value="&lt;div&gt;visited&lt;/div&gt;&lt;div&gt;읽은횟수&lt;/div&gt;" style="ellipse;whiteSpace=wrap;html=1;" parent="1" vertex="1">
          <mxGeometry x="-380" y="505" width="120" height="80" as="geometry" />
        </mxCell>
        <mxCell id="edOpRAjZDSZFCRQSgUi0-33" value="" style="endArrow=classic;html=1;rounded=0;entryX=0.5;entryY=0;entryDx=0;entryDy=0;exitX=0.5;exitY=1;exitDx=0;exitDy=0;" parent="1" source="edOpRAjZDSZFCRQSgUi0-27" target="edOpRAjZDSZFCRQSgUi0-30" edge="1">
          <mxGeometry width="50" height="50" relative="1" as="geometry">
            <mxPoint x="-740" y="440" as="sourcePoint" />
            <mxPoint x="-690" y="390" as="targetPoint" />
          </mxGeometry>
        </mxCell>
        <mxCell id="edOpRAjZDSZFCRQSgUi0-34" value="" style="endArrow=classic;html=1;rounded=0;entryX=0.5;entryY=0;entryDx=0;entryDy=0;exitX=0.5;exitY=1;exitDx=0;exitDy=0;" parent="1" source="edOpRAjZDSZFCRQSgUi0-27" target="edOpRAjZDSZFCRQSgUi0-29" edge="1">
          <mxGeometry width="50" height="50" relative="1" as="geometry">
            <mxPoint x="-740" y="440" as="sourcePoint" />
            <mxPoint x="-690" y="390" as="targetPoint" />
          </mxGeometry>
        </mxCell>
        <mxCell id="edOpRAjZDSZFCRQSgUi0-35" value="" style="endArrow=classic;html=1;rounded=0;entryX=0.5;entryY=0;entryDx=0;entryDy=0;exitX=0.5;exitY=1;exitDx=0;exitDy=0;" parent="1" source="edOpRAjZDSZFCRQSgUi0-27" target="edOpRAjZDSZFCRQSgUi0-28" edge="1">
          <mxGeometry width="50" height="50" relative="1" as="geometry">
            <mxPoint x="-740" y="440" as="sourcePoint" />
            <mxPoint x="-690" y="390" as="targetPoint" />
          </mxGeometry>
        </mxCell>
        <mxCell id="edOpRAjZDSZFCRQSgUi0-36" value="" style="endArrow=classic;html=1;rounded=0;entryX=0.5;entryY=0;entryDx=0;entryDy=0;exitX=0.5;exitY=1;exitDx=0;exitDy=0;" parent="1" source="edOpRAjZDSZFCRQSgUi0-27" target="edOpRAjZDSZFCRQSgUi0-31" edge="1">
          <mxGeometry width="50" height="50" relative="1" as="geometry">
            <mxPoint x="-740" y="440" as="sourcePoint" />
            <mxPoint x="-690" y="390" as="targetPoint" />
          </mxGeometry>
        </mxCell>
        <mxCell id="edOpRAjZDSZFCRQSgUi0-37" value="" style="endArrow=classic;html=1;rounded=0;entryX=0.5;entryY=0;entryDx=0;entryDy=0;exitX=0.5;exitY=1;exitDx=0;exitDy=0;" parent="1" source="edOpRAjZDSZFCRQSgUi0-27" target="edOpRAjZDSZFCRQSgUi0-32" edge="1">
          <mxGeometry width="50" height="50" relative="1" as="geometry">
            <mxPoint x="-740" y="440" as="sourcePoint" />
            <mxPoint x="-690" y="390" as="targetPoint" />
          </mxGeometry>
        </mxCell>
        <mxCell id="edOpRAjZDSZFCRQSgUi0-38" value="qna&lt;div&gt;(묻고 답하기)&lt;/div&gt;" style="rounded=0;whiteSpace=wrap;html=1;" parent="1" vertex="1">
          <mxGeometry x="-700" y="670" width="120" height="60" as="geometry" />
        </mxCell>
        <mxCell id="edOpRAjZDSZFCRQSgUi0-39" value="&lt;div&gt;no&lt;/div&gt;글번호" style="ellipse;whiteSpace=wrap;html=1;" parent="1" vertex="1">
          <mxGeometry x="-1300" y="780" width="120" height="80" as="geometry" />
        </mxCell>
        <mxCell id="edOpRAjZDSZFCRQSgUi0-40" value="&lt;div&gt;title&lt;/div&gt;글제목" style="ellipse;whiteSpace=wrap;html=1;" parent="1" vertex="1">
          <mxGeometry x="-820" y="780" width="120" height="80" as="geometry" />
        </mxCell>
        <mxCell id="edOpRAjZDSZFCRQSgUi0-41" value="&lt;div&gt;plevel&lt;/div&gt;글종류" style="ellipse;whiteSpace=wrap;html=1;" parent="1" vertex="1">
          <mxGeometry x="-1140" y="780" width="120" height="80" as="geometry" />
        </mxCell>
        <mxCell id="edOpRAjZDSZFCRQSgUi0-42" value="&lt;div&gt;&lt;span style=&quot;background-color: initial;&quot;&gt;parno&lt;/span&gt;&lt;/div&gt;&lt;div&gt;&lt;span style=&quot;background-color: initial;&quot;&gt;부모글번호&lt;/span&gt;&lt;br&gt;&lt;/div&gt;" style="ellipse;whiteSpace=wrap;html=1;" parent="1" vertex="1">
          <mxGeometry x="-980" y="780" width="120" height="80" as="geometry" />
        </mxCell>
        <mxCell id="edOpRAjZDSZFCRQSgUi0-43" value="&lt;div&gt;content&lt;/div&gt;글내용" style="ellipse;whiteSpace=wrap;html=1;" parent="1" vertex="1">
          <mxGeometry x="-660" y="780" width="120" height="80" as="geometry" />
        </mxCell>
        <mxCell id="edOpRAjZDSZFCRQSgUi0-44" value="&lt;div&gt;visited&lt;/div&gt;&lt;div&gt;읽은 횟수&lt;/div&gt;" style="ellipse;whiteSpace=wrap;html=1;" parent="1" vertex="1">
          <mxGeometry x="-500" y="780" width="120" height="80" as="geometry" />
        </mxCell>
        <mxCell id="edOpRAjZDSZFCRQSgUi0-45" value="&lt;div&gt;&lt;font color=&quot;#007fff&quot;&gt;aid&lt;/font&gt;&lt;/div&gt;&lt;div&gt;&lt;font color=&quot;#007fff&quot;&gt;작성자&lt;/font&gt;&lt;/div&gt;" style="ellipse;whiteSpace=wrap;html=1;" parent="1" vertex="1">
          <mxGeometry x="-340" y="780" width="120" height="80" as="geometry" />
        </mxCell>
        <mxCell id="edOpRAjZDSZFCRQSgUi0-46" value="data&lt;div&gt;자료실&lt;/div&gt;" style="rounded=0;whiteSpace=wrap;html=1;" parent="1" vertex="1">
          <mxGeometry x="-700" y="930" width="120" height="60" as="geometry" />
        </mxCell>
        <mxCell id="edOpRAjZDSZFCRQSgUi0-47" value="&lt;div&gt;&lt;font color=&quot;#007fff&quot;&gt;no&lt;/font&gt;&lt;/div&gt;&lt;font color=&quot;#007fff&quot;&gt;글번호&lt;/font&gt;" style="ellipse;whiteSpace=wrap;html=1;" parent="1" vertex="1">
          <mxGeometry x="-1100" y="1070" width="120" height="80" as="geometry" />
        </mxCell>
        <mxCell id="edOpRAjZDSZFCRQSgUi0-49" value="&lt;div&gt;plevel&lt;/div&gt;글종류" style="ellipse;whiteSpace=wrap;html=1;" parent="1" vertex="1">
          <mxGeometry x="-940" y="1070" width="120" height="80" as="geometry" />
        </mxCell>
        <mxCell id="edOpRAjZDSZFCRQSgUi0-51" value="&lt;div&gt;content&lt;/div&gt;글내용" style="ellipse;whiteSpace=wrap;html=1;" parent="1" vertex="1">
          <mxGeometry x="-780" y="1070" width="120" height="80" as="geometry" />
        </mxCell>
        <mxCell id="edOpRAjZDSZFCRQSgUi0-52" value="&lt;div&gt;visited&lt;/div&gt;&lt;div&gt;읽은 횟수&lt;/div&gt;" style="ellipse;whiteSpace=wrap;html=1;" parent="1" vertex="1">
          <mxGeometry x="-300" y="1070" width="120" height="80" as="geometry" />
        </mxCell>
        <mxCell id="edOpRAjZDSZFCRQSgUi0-53" value="&lt;div&gt;datafile&lt;/div&gt;&lt;div&gt;자료파일&lt;/div&gt;" style="ellipse;whiteSpace=wrap;html=1;" parent="1" vertex="1">
          <mxGeometry x="-620" y="1070" width="120" height="80" as="geometry" />
        </mxCell>
        <mxCell id="edOpRAjZDSZFCRQSgUi0-54" value="&lt;div&gt;resdate&lt;/div&gt;&lt;div&gt;작성일시&lt;/div&gt;" style="ellipse;whiteSpace=wrap;html=1;" parent="1" vertex="1">
          <mxGeometry x="-460" y="1070" width="120" height="80" as="geometry" />
        </mxCell>
        <mxCell id="edOpRAjZDSZFCRQSgUi0-55" value="member&lt;div&gt;회원&lt;/div&gt;" style="rounded=0;whiteSpace=wrap;html=1;" parent="1" vertex="1">
          <mxGeometry x="452" y="670" width="120" height="60" as="geometry" />
        </mxCell>
        <mxCell id="edOpRAjZDSZFCRQSgUi0-56" value="&lt;font color=&quot;#ff443d&quot;&gt;id&lt;/font&gt;&lt;div&gt;&lt;font color=&quot;#ff443d&quot;&gt;아이디&lt;/font&gt;&lt;/div&gt;" style="ellipse;whiteSpace=wrap;html=1;" parent="1" vertex="1">
          <mxGeometry x="-70" y="785" width="120" height="80" as="geometry" />
        </mxCell>
        <mxCell id="edOpRAjZDSZFCRQSgUi0-57" value="&lt;div&gt;pw&lt;/div&gt;&lt;div&gt;비밀번호&lt;/div&gt;" style="ellipse;whiteSpace=wrap;html=1;" parent="1" vertex="1">
          <mxGeometry x="80" y="785" width="120" height="80" as="geometry" />
        </mxCell>
        <mxCell id="edOpRAjZDSZFCRQSgUi0-58" value="&lt;div&gt;name&lt;/div&gt;&lt;div&gt;이름&lt;/div&gt;" style="ellipse;whiteSpace=wrap;html=1;" parent="1" vertex="1">
          <mxGeometry x="384" y="785" width="120" height="80" as="geometry" />
        </mxCell>
        <mxCell id="edOpRAjZDSZFCRQSgUi0-59" value="&lt;div&gt;pwRemark&lt;/div&gt;&lt;div&gt;비밀번호 확인&lt;/div&gt;" style="ellipse;whiteSpace=wrap;html=1;" parent="1" vertex="1">
          <mxGeometry x="234" y="785" width="120" height="80" as="geometry" />
        </mxCell>
        <mxCell id="edOpRAjZDSZFCRQSgUi0-60" value="&lt;div&gt;tel&lt;/div&gt;&lt;div&gt;전화번호&lt;/div&gt;" style="ellipse;whiteSpace=wrap;html=1;" parent="1" vertex="1">
          <mxGeometry x="534" y="785" width="120" height="80" as="geometry" />
        </mxCell>
        <mxCell id="edOpRAjZDSZFCRQSgUi0-61" value="&lt;div&gt;email&lt;/div&gt;&lt;div&gt;이메일&lt;/div&gt;" style="ellipse;whiteSpace=wrap;html=1;" parent="1" vertex="1">
          <mxGeometry x="680" y="785" width="120" height="80" as="geometry" />
        </mxCell>
        <mxCell id="edOpRAjZDSZFCRQSgUi0-62" value="&lt;div&gt;bdate&lt;/div&gt;&lt;div&gt;생년월일&lt;/div&gt;" style="ellipse;whiteSpace=wrap;html=1;" parent="1" vertex="1">
          <mxGeometry x="834" y="785" width="120" height="80" as="geometry" />
        </mxCell>
        <mxCell id="edOpRAjZDSZFCRQSgUi0-63" value="&lt;div&gt;gender&lt;/div&gt;&lt;div&gt;성별&lt;/div&gt;" style="ellipse;whiteSpace=wrap;html=1;" parent="1" vertex="1">
          <mxGeometry x="984" y="785" width="120" height="80" as="geometry" />
        </mxCell>
        <mxCell id="y1N-J0GQsxxIr4UBqcrs-1" value="" style="endArrow=classic;html=1;rounded=0;exitX=0.5;exitY=1;exitDx=0;exitDy=0;entryX=0.5;entryY=0;entryDx=0;entryDy=0;" edge="1" parent="1" source="edOpRAjZDSZFCRQSgUi0-55" target="edOpRAjZDSZFCRQSgUi0-56">
          <mxGeometry width="50" height="50" relative="1" as="geometry">
            <mxPoint x="458" y="850" as="sourcePoint" />
            <mxPoint x="-20" y="785" as="targetPoint" />
          </mxGeometry>
        </mxCell>
        <mxCell id="y1N-J0GQsxxIr4UBqcrs-2" value="" style="endArrow=classic;html=1;rounded=0;exitX=0.5;exitY=1;exitDx=0;exitDy=0;entryX=0.5;entryY=0;entryDx=0;entryDy=0;" edge="1" parent="1" source="edOpRAjZDSZFCRQSgUi0-55" target="edOpRAjZDSZFCRQSgUi0-57">
          <mxGeometry width="50" height="50" relative="1" as="geometry">
            <mxPoint x="458" y="850" as="sourcePoint" />
            <mxPoint x="508" y="800" as="targetPoint" />
          </mxGeometry>
        </mxCell>
        <mxCell id="y1N-J0GQsxxIr4UBqcrs-3" value="" style="endArrow=classic;html=1;rounded=0;exitX=0.5;exitY=1;exitDx=0;exitDy=0;entryX=0.5;entryY=0;entryDx=0;entryDy=0;" edge="1" parent="1" source="edOpRAjZDSZFCRQSgUi0-55" target="edOpRAjZDSZFCRQSgUi0-59">
          <mxGeometry width="50" height="50" relative="1" as="geometry">
            <mxPoint x="458" y="850" as="sourcePoint" />
            <mxPoint x="508" y="800" as="targetPoint" />
          </mxGeometry>
        </mxCell>
        <mxCell id="y1N-J0GQsxxIr4UBqcrs-4" value="" style="endArrow=classic;html=1;rounded=0;exitX=0.5;exitY=1;exitDx=0;exitDy=0;entryX=0.5;entryY=0;entryDx=0;entryDy=0;" edge="1" parent="1" source="edOpRAjZDSZFCRQSgUi0-55" target="edOpRAjZDSZFCRQSgUi0-58">
          <mxGeometry width="50" height="50" relative="1" as="geometry">
            <mxPoint x="458" y="850" as="sourcePoint" />
            <mxPoint x="508" y="800" as="targetPoint" />
          </mxGeometry>
        </mxCell>
        <mxCell id="y1N-J0GQsxxIr4UBqcrs-5" value="" style="endArrow=classic;html=1;rounded=0;exitX=0.5;exitY=1;exitDx=0;exitDy=0;entryX=0.5;entryY=0;entryDx=0;entryDy=0;" edge="1" parent="1" source="edOpRAjZDSZFCRQSgUi0-55" target="edOpRAjZDSZFCRQSgUi0-60">
          <mxGeometry width="50" height="50" relative="1" as="geometry">
            <mxPoint x="458" y="850" as="sourcePoint" />
            <mxPoint x="508" y="800" as="targetPoint" />
          </mxGeometry>
        </mxCell>
        <mxCell id="y1N-J0GQsxxIr4UBqcrs-6" value="" style="endArrow=classic;html=1;rounded=0;exitX=0.5;exitY=1;exitDx=0;exitDy=0;entryX=0.5;entryY=0;entryDx=0;entryDy=0;" edge="1" parent="1" source="edOpRAjZDSZFCRQSgUi0-55" target="edOpRAjZDSZFCRQSgUi0-61">
          <mxGeometry width="50" height="50" relative="1" as="geometry">
            <mxPoint x="458" y="850" as="sourcePoint" />
            <mxPoint x="508" y="800" as="targetPoint" />
          </mxGeometry>
        </mxCell>
        <mxCell id="y1N-J0GQsxxIr4UBqcrs-7" value="" style="endArrow=classic;html=1;rounded=0;exitX=0.5;exitY=1;exitDx=0;exitDy=0;entryX=0.5;entryY=0;entryDx=0;entryDy=0;" edge="1" parent="1" source="edOpRAjZDSZFCRQSgUi0-55" target="edOpRAjZDSZFCRQSgUi0-62">
          <mxGeometry width="50" height="50" relative="1" as="geometry">
            <mxPoint x="458" y="850" as="sourcePoint" />
            <mxPoint x="508" y="800" as="targetPoint" />
          </mxGeometry>
        </mxCell>
        <mxCell id="y1N-J0GQsxxIr4UBqcrs-8" value="" style="endArrow=classic;html=1;rounded=0;exitX=0.5;exitY=1;exitDx=0;exitDy=0;entryX=0.5;entryY=0;entryDx=0;entryDy=0;" edge="1" parent="1" source="edOpRAjZDSZFCRQSgUi0-55" target="edOpRAjZDSZFCRQSgUi0-63">
          <mxGeometry width="50" height="50" relative="1" as="geometry">
            <mxPoint x="458" y="850" as="sourcePoint" />
            <mxPoint x="508" y="800" as="targetPoint" />
          </mxGeometry>
        </mxCell>
        <mxCell id="y1N-J0GQsxxIr4UBqcrs-9" value="&lt;font color=&quot;#ff443d&quot;&gt;tno&lt;/font&gt;&lt;div&gt;&lt;font color=&quot;#ff443d&quot;&gt;(연번)&lt;/font&gt;&lt;/div&gt;" style="ellipse;whiteSpace=wrap;html=1;" vertex="1" parent="1">
          <mxGeometry x="-990" y="160" width="120" height="80" as="geometry" />
        </mxCell>
        <mxCell id="y1N-J0GQsxxIr4UBqcrs-10" value="" style="endArrow=classic;html=1;rounded=0;exitX=0.5;exitY=1;exitDx=0;exitDy=0;entryX=0.5;entryY=0;entryDx=0;entryDy=0;" edge="1" parent="1" source="edOpRAjZDSZFCRQSgUi0-1" target="y1N-J0GQsxxIr4UBqcrs-9">
          <mxGeometry width="50" height="50" relative="1" as="geometry">
            <mxPoint x="-400" y="430" as="sourcePoint" />
            <mxPoint x="-350" y="380" as="targetPoint" />
          </mxGeometry>
        </mxCell>
        <mxCell id="y1N-J0GQsxxIr4UBqcrs-11" value="" style="endArrow=classic;html=1;rounded=0;entryX=0.5;entryY=0;entryDx=0;entryDy=0;exitX=0.5;exitY=1;exitDx=0;exitDy=0;" edge="1" parent="1" source="edOpRAjZDSZFCRQSgUi0-46" target="edOpRAjZDSZFCRQSgUi0-47">
          <mxGeometry width="50" height="50" relative="1" as="geometry">
            <mxPoint x="-690" y="1040" as="sourcePoint" />
            <mxPoint x="-640" y="990" as="targetPoint" />
          </mxGeometry>
        </mxCell>
        <mxCell id="y1N-J0GQsxxIr4UBqcrs-12" value="" style="endArrow=classic;html=1;rounded=0;entryX=0.5;entryY=0;entryDx=0;entryDy=0;exitX=0.5;exitY=1;exitDx=0;exitDy=0;" edge="1" parent="1" source="edOpRAjZDSZFCRQSgUi0-46" target="edOpRAjZDSZFCRQSgUi0-49">
          <mxGeometry width="50" height="50" relative="1" as="geometry">
            <mxPoint x="-690" y="1040" as="sourcePoint" />
            <mxPoint x="-640" y="990" as="targetPoint" />
          </mxGeometry>
        </mxCell>
        <mxCell id="y1N-J0GQsxxIr4UBqcrs-13" value="" style="endArrow=classic;html=1;rounded=0;entryX=0.5;entryY=0;entryDx=0;entryDy=0;exitX=0.5;exitY=1;exitDx=0;exitDy=0;" edge="1" parent="1" source="edOpRAjZDSZFCRQSgUi0-46" target="edOpRAjZDSZFCRQSgUi0-51">
          <mxGeometry width="50" height="50" relative="1" as="geometry">
            <mxPoint x="-690" y="1040" as="sourcePoint" />
            <mxPoint x="-640" y="990" as="targetPoint" />
          </mxGeometry>
        </mxCell>
        <mxCell id="y1N-J0GQsxxIr4UBqcrs-14" value="" style="endArrow=classic;html=1;rounded=0;entryX=0.5;entryY=0;entryDx=0;entryDy=0;exitX=0.5;exitY=1;exitDx=0;exitDy=0;" edge="1" parent="1" source="edOpRAjZDSZFCRQSgUi0-46" target="edOpRAjZDSZFCRQSgUi0-53">
          <mxGeometry width="50" height="50" relative="1" as="geometry">
            <mxPoint x="-690" y="1040" as="sourcePoint" />
            <mxPoint x="-640" y="990" as="targetPoint" />
          </mxGeometry>
        </mxCell>
        <mxCell id="y1N-J0GQsxxIr4UBqcrs-15" value="" style="endArrow=classic;html=1;rounded=0;entryX=0.5;entryY=0;entryDx=0;entryDy=0;exitX=0.5;exitY=1;exitDx=0;exitDy=0;" edge="1" parent="1" source="edOpRAjZDSZFCRQSgUi0-46" target="edOpRAjZDSZFCRQSgUi0-54">
          <mxGeometry width="50" height="50" relative="1" as="geometry">
            <mxPoint x="-470" y="1040" as="sourcePoint" />
            <mxPoint x="-640" y="990" as="targetPoint" />
          </mxGeometry>
        </mxCell>
        <mxCell id="y1N-J0GQsxxIr4UBqcrs-16" value="" style="endArrow=classic;html=1;rounded=0;entryX=0.5;entryY=0;entryDx=0;entryDy=0;exitX=0.5;exitY=1;exitDx=0;exitDy=0;" edge="1" parent="1" source="edOpRAjZDSZFCRQSgUi0-46" target="edOpRAjZDSZFCRQSgUi0-52">
          <mxGeometry width="50" height="50" relative="1" as="geometry">
            <mxPoint x="-690" y="1040" as="sourcePoint" />
            <mxPoint x="-640" y="990" as="targetPoint" />
          </mxGeometry>
        </mxCell>
        <mxCell id="y1N-J0GQsxxIr4UBqcrs-18" value="" style="endArrow=classic;html=1;rounded=0;exitX=0.45;exitY=0.033;exitDx=0;exitDy=0;exitPerimeter=0;entryX=0;entryY=0.5;entryDx=0;entryDy=0;" edge="1" parent="1" source="edOpRAjZDSZFCRQSgUi0-38" target="y1N-J0GQsxxIr4UBqcrs-19">
          <mxGeometry width="50" height="50" relative="1" as="geometry">
            <mxPoint x="-110" y="700" as="sourcePoint" />
            <mxPoint x="-110" y="610" as="targetPoint" />
            <Array as="points">
              <mxPoint x="-646" y="610" />
            </Array>
          </mxGeometry>
        </mxCell>
        <mxCell id="y1N-J0GQsxxIr4UBqcrs-20" value="aid" style="edgeLabel;html=1;align=center;verticalAlign=middle;resizable=0;points=[];" vertex="1" connectable="0" parent="y1N-J0GQsxxIr4UBqcrs-18">
          <mxGeometry x="0.7659" y="-4" relative="1" as="geometry">
            <mxPoint x="10" y="16" as="offset" />
          </mxGeometry>
        </mxCell>
        <mxCell id="y1N-J0GQsxxIr4UBqcrs-19" value="글 등록" style="rhombus;whiteSpace=wrap;html=1;" vertex="1" parent="1">
          <mxGeometry x="-110" y="570" width="130" height="80" as="geometry" />
        </mxCell>
        <mxCell id="y1N-J0GQsxxIr4UBqcrs-21" value="" style="endArrow=classic;html=1;rounded=0;exitX=0.5;exitY=0;exitDx=0;exitDy=0;entryX=1;entryY=0.5;entryDx=0;entryDy=0;" edge="1" parent="1" source="edOpRAjZDSZFCRQSgUi0-55" target="y1N-J0GQsxxIr4UBqcrs-19">
          <mxGeometry width="50" height="50" relative="1" as="geometry">
            <mxPoint x="-110" y="700" as="sourcePoint" />
            <mxPoint x="-60" y="650" as="targetPoint" />
            <Array as="points">
              <mxPoint x="512" y="610" />
            </Array>
          </mxGeometry>
        </mxCell>
        <mxCell id="y1N-J0GQsxxIr4UBqcrs-22" value="id" style="edgeLabel;html=1;align=center;verticalAlign=middle;resizable=0;points=[];" vertex="1" connectable="0" parent="y1N-J0GQsxxIr4UBqcrs-21">
          <mxGeometry x="0.8877" y="2" relative="1" as="geometry">
            <mxPoint x="-1" y="18" as="offset" />
          </mxGeometry>
        </mxCell>
        <mxCell id="y1N-J0GQsxxIr4UBqcrs-23" value="1" style="text;html=1;align=center;verticalAlign=middle;resizable=0;points=[];autosize=1;strokeColor=none;fillColor=none;" vertex="1" parent="1">
          <mxGeometry x="35" y="568" width="30" height="30" as="geometry" />
        </mxCell>
        <mxCell id="y1N-J0GQsxxIr4UBqcrs-24" value="∞" style="text;html=1;align=center;verticalAlign=middle;resizable=0;points=[];autosize=1;strokeColor=none;fillColor=none;" vertex="1" parent="1">
          <mxGeometry x="-185" y="568" width="30" height="30" as="geometry" />
        </mxCell>
        <mxCell id="y1N-J0GQsxxIr4UBqcrs-25" value="" style="endArrow=classic;html=1;rounded=0;exitX=0.5;exitY=1;exitDx=0;exitDy=0;entryX=0.5;entryY=0;entryDx=0;entryDy=0;" edge="1" parent="1" target="edOpRAjZDSZFCRQSgUi0-39">
          <mxGeometry width="50" height="50" relative="1" as="geometry">
            <mxPoint x="-642" y="730" as="sourcePoint" />
            <mxPoint x="-1164" y="785" as="targetPoint" />
          </mxGeometry>
        </mxCell>
        <mxCell id="y1N-J0GQsxxIr4UBqcrs-26" value="" style="endArrow=classic;html=1;rounded=0;exitX=0.5;exitY=1;exitDx=0;exitDy=0;entryX=0.5;entryY=0;entryDx=0;entryDy=0;" edge="1" parent="1" target="edOpRAjZDSZFCRQSgUi0-41">
          <mxGeometry width="50" height="50" relative="1" as="geometry">
            <mxPoint x="-642" y="730" as="sourcePoint" />
            <mxPoint x="-1014" y="785" as="targetPoint" />
          </mxGeometry>
        </mxCell>
        <mxCell id="y1N-J0GQsxxIr4UBqcrs-27" value="" style="endArrow=classic;html=1;rounded=0;exitX=0.5;exitY=1;exitDx=0;exitDy=0;entryX=0.5;entryY=0;entryDx=0;entryDy=0;" edge="1" parent="1" target="edOpRAjZDSZFCRQSgUi0-42">
          <mxGeometry width="50" height="50" relative="1" as="geometry">
            <mxPoint x="-642" y="730" as="sourcePoint" />
            <mxPoint x="-860" y="785" as="targetPoint" />
          </mxGeometry>
        </mxCell>
        <mxCell id="y1N-J0GQsxxIr4UBqcrs-28" value="" style="endArrow=classic;html=1;rounded=0;exitX=0.5;exitY=1;exitDx=0;exitDy=0;entryX=0.5;entryY=0;entryDx=0;entryDy=0;" edge="1" parent="1" target="edOpRAjZDSZFCRQSgUi0-40">
          <mxGeometry width="50" height="50" relative="1" as="geometry">
            <mxPoint x="-642" y="730" as="sourcePoint" />
            <mxPoint x="-710" y="785" as="targetPoint" />
          </mxGeometry>
        </mxCell>
        <mxCell id="y1N-J0GQsxxIr4UBqcrs-30" value="" style="endArrow=classic;html=1;rounded=0;exitX=0.5;exitY=1;exitDx=0;exitDy=0;entryX=0.5;entryY=0;entryDx=0;entryDy=0;" edge="1" parent="1" target="edOpRAjZDSZFCRQSgUi0-43">
          <mxGeometry width="50" height="50" relative="1" as="geometry">
            <mxPoint x="-642" y="730" as="sourcePoint" />
            <mxPoint x="-414" y="785" as="targetPoint" />
          </mxGeometry>
        </mxCell>
        <mxCell id="y1N-J0GQsxxIr4UBqcrs-31" value="" style="endArrow=classic;html=1;rounded=0;exitX=0.5;exitY=1;exitDx=0;exitDy=0;entryX=0.5;entryY=0;entryDx=0;entryDy=0;" edge="1" parent="1" target="edOpRAjZDSZFCRQSgUi0-44">
          <mxGeometry width="50" height="50" relative="1" as="geometry">
            <mxPoint x="-642" y="730" as="sourcePoint" />
            <mxPoint x="-260" y="785" as="targetPoint" />
          </mxGeometry>
        </mxCell>
        <mxCell id="y1N-J0GQsxxIr4UBqcrs-32" value="" style="endArrow=classic;html=1;rounded=0;exitX=0.5;exitY=1;exitDx=0;exitDy=0;entryX=0.5;entryY=0;entryDx=0;entryDy=0;" edge="1" parent="1" target="edOpRAjZDSZFCRQSgUi0-45">
          <mxGeometry width="50" height="50" relative="1" as="geometry">
            <mxPoint x="-642" y="730" as="sourcePoint" />
            <mxPoint x="-110" y="785" as="targetPoint" />
          </mxGeometry>
        </mxCell>
        <mxCell id="y1N-J0GQsxxIr4UBqcrs-43" value="List" style="swimlane;fontStyle=0;childLayout=stackLayout;horizontal=1;startSize=30;horizontalStack=0;resizeParent=1;resizeParentMax=0;resizeLast=0;collapsible=1;marginBottom=0;whiteSpace=wrap;html=1;" vertex="1" parent="1">
          <mxGeometry x="-1510" y="710" width="140" height="120" as="geometry" />
        </mxCell>
        <mxCell id="y1N-J0GQsxxIr4UBqcrs-44" value="Item 1" style="text;strokeColor=none;fillColor=none;align=left;verticalAlign=middle;spacingLeft=4;spacingRight=4;overflow=hidden;points=[[0,0.5],[1,0.5]];portConstraint=eastwest;rotatable=0;whiteSpace=wrap;html=1;" vertex="1" parent="y1N-J0GQsxxIr4UBqcrs-43">
          <mxGeometry y="30" width="140" height="30" as="geometry" />
        </mxCell>
        <mxCell id="y1N-J0GQsxxIr4UBqcrs-45" value="Item 2" style="text;strokeColor=none;fillColor=none;align=left;verticalAlign=middle;spacingLeft=4;spacingRight=4;overflow=hidden;points=[[0,0.5],[1,0.5]];portConstraint=eastwest;rotatable=0;whiteSpace=wrap;html=1;" vertex="1" parent="y1N-J0GQsxxIr4UBqcrs-43">
          <mxGeometry y="60" width="140" height="30" as="geometry" />
        </mxCell>
        <mxCell id="y1N-J0GQsxxIr4UBqcrs-46" value="Item 3" style="text;strokeColor=none;fillColor=none;align=left;verticalAlign=middle;spacingLeft=4;spacingRight=4;overflow=hidden;points=[[0,0.5],[1,0.5]];portConstraint=eastwest;rotatable=0;whiteSpace=wrap;html=1;" vertex="1" parent="y1N-J0GQsxxIr4UBqcrs-43">
          <mxGeometry y="90" width="140" height="30" as="geometry" />
        </mxCell>
        <mxCell id="y1N-J0GQsxxIr4UBqcrs-47" value="" style="endArrow=classic;html=1;rounded=0;exitX=1;exitY=0.5;exitDx=0;exitDy=0;entryX=0;entryY=0.5;entryDx=0;entryDy=0;" edge="1" parent="1" source="edOpRAjZDSZFCRQSgUi0-46" target="y1N-J0GQsxxIr4UBqcrs-48">
          <mxGeometry width="50" height="50" relative="1" as="geometry">
            <mxPoint x="-210" y="960" as="sourcePoint" />
            <mxPoint y="960" as="targetPoint" />
          </mxGeometry>
        </mxCell>
        <mxCell id="y1N-J0GQsxxIr4UBqcrs-48" value="자료 등록" style="rhombus;whiteSpace=wrap;html=1;" vertex="1" parent="1">
          <mxGeometry y="920" width="120" height="80" as="geometry" />
        </mxCell>
        <mxCell id="y1N-J0GQsxxIr4UBqcrs-49" value="" style="endArrow=classic;html=1;rounded=0;exitX=0.5;exitY=1;exitDx=0;exitDy=0;entryX=1;entryY=0.5;entryDx=0;entryDy=0;" edge="1" parent="1" source="edOpRAjZDSZFCRQSgUi0-55" target="y1N-J0GQsxxIr4UBqcrs-48">
          <mxGeometry width="50" height="50" relative="1" as="geometry">
            <mxPoint x="400" y="950" as="sourcePoint" />
            <mxPoint x="510" y="970" as="targetPoint" />
            <Array as="points">
              <mxPoint x="510" y="960" />
            </Array>
          </mxGeometry>
        </mxCell>
        <mxCell id="y1N-J0GQsxxIr4UBqcrs-50" value="id" style="text;html=1;align=center;verticalAlign=middle;resizable=0;points=[];autosize=1;strokeColor=none;fillColor=none;" vertex="1" parent="1">
          <mxGeometry x="125" y="968" width="30" height="30" as="geometry" />
        </mxCell>
        <mxCell id="y1N-J0GQsxxIr4UBqcrs-51" value="no" style="text;html=1;align=center;verticalAlign=middle;resizable=0;points=[];autosize=1;strokeColor=none;fillColor=none;" vertex="1" parent="1">
          <mxGeometry x="-50" y="968" width="40" height="30" as="geometry" />
        </mxCell>
        <mxCell id="y1N-J0GQsxxIr4UBqcrs-52" value="1" style="text;html=1;align=center;verticalAlign=middle;resizable=0;points=[];autosize=1;strokeColor=none;fillColor=none;" vertex="1" parent="1">
          <mxGeometry x="125" y="928" width="30" height="30" as="geometry" />
        </mxCell>
        <mxCell id="y1N-J0GQsxxIr4UBqcrs-53" value="∞" style="text;html=1;align=center;verticalAlign=middle;resizable=0;points=[];autosize=1;strokeColor=none;fillColor=none;" vertex="1" parent="1">
          <mxGeometry x="-45" y="928" width="30" height="30" as="geometry" />
        </mxCell>
        <mxCell id="y1N-J0GQsxxIr4UBqcrs-54" value="resdate&lt;div&gt;작성일시&lt;/div&gt;" style="ellipse;whiteSpace=wrap;html=1;" vertex="1" parent="1">
          <mxGeometry x="-200" y="780" width="120" height="80" as="geometry" />
        </mxCell>
        <mxCell id="y1N-J0GQsxxIr4UBqcrs-55" value="" style="endArrow=classic;html=1;rounded=0;entryX=0.5;entryY=0;entryDx=0;entryDy=0;exitX=0.5;exitY=1;exitDx=0;exitDy=0;" edge="1" parent="1" source="edOpRAjZDSZFCRQSgUi0-38" target="y1N-J0GQsxxIr4UBqcrs-54">
          <mxGeometry width="50" height="50" relative="1" as="geometry">
            <mxPoint x="-500" y="710" as="sourcePoint" />
            <mxPoint x="-610" y="710" as="targetPoint" />
          </mxGeometry>
        </mxCell>
      </root>
    </mxGraphModel>
  </diagram>
</mxfile>
